<?xml version="1.0" standalone="no"?>
<!DOCTYPE svg PUBLIC "-//W3C//DTD SVG 20010904//EN"
 "http://www.w3.org/TR/2001/REC-SVG-20010904/DTD/svg10.dtd">
<svg version="1.0" xmlns="http://www.w3.org/2000/svg"
 width="167.000000pt" height="147.000000pt" viewBox="0 0 167.000000 147.000000"
 preserveAspectRatio="xMidYMid meet">
<metadata>
Created by potrace 1.10, written by Peter Selinger 2001-2011
</metadata>
<g transform="translate(0.000000,147.000000) scale(0.100000,-0.100000)"
fill="#000000" stroke="none">
<path d="M1 1244 c0 -154 4 -223 10 -211 6 9 15 17 21 17 9 0 9 -3 0 -12 -19
-19 -14 -34 13 -46 35 -16 44 -14 21 3 -21 16 -30 45 -15 45 5 0 14 -11 18
-24 9 -23 36 -40 50 -32 4 3 7 -6 7 -19 0 -13 -4 -21 -8 -19 -5 3 -6 9 -4 13
3 4 -10 8 -29 9 -20 1 -45 6 -56 13 -11 6 -23 9 -25 6 -8 -8 90 -61 110 -59
10 0 16 -2 12 -5 -7 -7 35 -36 127 -87 62 -35 70 -37 97 -26 30 12 32 30 4 30
-8 0 -12 -4 -9 -10 3 -6 -1 -7 -10 -3 -9 3 -13 9 -8 12 27 20 9 41 -77 90 -49
29 -94 49 -100 46 -6 -4 -9 -2 -8 4 2 6 -25 28 -60 49 l-63 39 -3 197 c-1 108
-6 199 -9 203 -4 3 -7 -97 -6 -223z m219 -319 c17 -9 28 -21 24 -26 -4 -7 -9
-7 -13 -2 -11 16 -55 43 -71 43 -8 0 5 -13 30 -29 28 -18 49 -25 56 -20 7 6
26 3 48 -6 42 -18 49 -29 9 -15 -26 9 -27 9 -9 -5 16 -12 31 -55 20 -55 -9 0
-53 48 -48 52 3 4 0 9 -7 14 -8 4 -10 3 -5 -4 11 -18 -19 -15 -34 3 -7 8 -20
15 -29 15 -24 1 -46 22 -47 47 -1 19 2 20 22 12 13 -5 38 -16 54 -24z"/>
<path d="M42 1465 c24 -24 154 -92 166 -88 11 5 13 3 7 -7 -5 -9 -4 -11 3 -6
12 7 92 -41 92 -55 0 -5 16 -17 35 -26 l35 -17 0 -203 c0 -156 3 -203 13 -203
8 0 7 -4 -3 -10 -13 -8 -13 -10 2 -10 14 0 18 12 20 73 l3 72 11 -55 12 -55 1
95 c0 52 -2 126 -6 165 -9 101 -23 52 -16 -60 4 -65 3 -87 -5 -80 -14 13 -21
194 -7 198 6 3 6 15 -2 35 -6 18 -9 32 -6 32 8 0 29 -24 36 -40 3 -9 6 -5 6
11 1 15 8 32 16 39 8 7 12 17 8 23 -4 6 0 8 9 5 9 -4 15 0 15 8 0 18 -17 17
-41 -1 -18 -14 -18 -15 -2 -15 9 0 15 -4 12 -8 -8 -14 -59 -7 -88 12 -15 10
-32 15 -39 11 -8 -6 -8 -2 0 14 13 23 26 27 36 11 4 -6 -1 -7 -12 -4 -16 5
-16 4 1 -10 15 -12 22 -13 27 -4 8 13 -32 45 -140 108 -64 37 -83 43 -138 45
-35 2 -63 2 -61 0z m100 -24 c-2 -9 3 -11 13 -7 9 3 13 2 10 -4 -6 -9 11 -14
43 -13 7 1 11 -2 8 -5 -3 -3 -1 -11 5 -19 9 -10 4 -10 -22 2 -19 8 -51 22 -71
31 -45 19 -49 30 -10 29 17 0 26 -6 24 -14z m192 -92 c6 -6 6 -9 -1 -9 -7 0
-15 5 -18 11 -4 6 -14 8 -22 5 -9 -4 -11 -2 -7 6 5 8 2 9 -9 5 -9 -3 -16 -2
-14 3 1 5 -7 16 -18 25 -11 9 3 5 30 -10 28 -15 54 -32 59 -36z"/>
<path d="M710 1453 c-19 -8 -45 -16 -57 -18 -12 -1 -43 -18 -70 -38 -48 -35
-102 -62 -110 -54 -2 2 37 28 87 57 50 29 89 54 86 57 -5 5 -140 -69 -204
-112 -37 -25 -28 -42 12 -24 28 13 61 5 51 -12 -9 -13 37 10 115 60 33 20 57
41 53 46 -5 4 -3 5 4 1 7 -4 34 7 60 24 52 32 36 40 -27 13z m-104 -75 c4 -7
3 -8 -4 -4 -7 4 -12 2 -12 -5 0 -7 -3 -9 -6 -6 -8 8 -64 -24 -64 -36 0 -4 -5
-5 -11 -1 -7 4 9 18 37 35 57 34 51 32 60 17z"/>
<path d="M798 1300 c-2 -96 -2 -179 0 -184 9 -18 22 21 23 69 0 28 2 46 4 40
7 -20 12 -116 6 -106 -4 5 -14 -4 -23 -20 -18 -31 -5 -41 21 -16 8 6 11 7 8 1
-3 -6 0 -21 7 -35 15 -30 10 -49 -12 -49 -12 0 -13 3 -5 8 8 5 9 13 3 22 -8
13 -11 13 -22 1 -10 -10 -10 -12 0 -7 12 7 17 -6 6 -17 -10 -9 -34 4 -27 16 3
5 1 7 -5 3 -6 -3 -13 -2 -17 4 -4 6 5 10 19 10 14 0 26 5 26 10 0 17 -29 11
-49 -9 -11 -11 -23 -16 -27 -13 -4 4 -4 -2 0 -13 6 -16 5 -17 -5 -8 -10 10
-22 7 -58 -13 -25 -14 -54 -35 -63 -46 -10 -11 -18 -17 -18 -12 0 4 -7 -1 -16
-12 -8 -10 -12 -13 -9 -6 6 12 3 12 -16 1 -42 -22 -129 -80 -129 -85 0 -3 4
-3 9 1 5 3 12 1 16 -5 3 -5 20 6 37 26 17 19 40 40 52 46 19 10 18 8 -4 -17
l-25 -27 25 7 c14 4 35 17 47 29 52 49 69 61 81 58 8 -2 11 1 7 7 -3 7 0 8 9
5 9 -3 13 -10 10 -15 -3 -5 -1 -9 5 -9 18 0 21 18 3 25 -16 6 -16 7 2 21 11 8
28 12 37 9 10 -3 20 -1 24 5 3 5 12 10 18 10 7 0 3 -7 -7 -15 -11 -8 -15 -15
-9 -15 7 0 15 5 18 10 3 6 12 10 18 10 7 0 3 -7 -7 -15 -11 -8 -28 -13 -37
-10 -10 3 -21 0 -25 -6 -5 -8 -2 -10 7 -5 8 4 3 -1 -11 -11 -13 -10 -32 -26
-42 -35 -28 -27 -58 -41 -58 -26 0 7 14 19 31 27 16 7 28 15 26 18 -8 7 -76
-30 -71 -39 3 -4 -1 -5 -9 -2 -8 3 -14 -2 -14 -11 0 -11 6 -13 21 -9 28 9 19
1 -23 -21 -18 -9 -30 -12 -27 -6 15 24 -14 9 -38 -20 -18 -21 -33 -30 -46 -26
-17 4 -38 -19 -27 -30 8 -7 295 153 320 179 10 10 22 16 28 13 5 -4 9 -1 9 5
0 6 4 8 10 5 6 -4 7 1 3 12 -6 16 -5 16 11 4 15 -13 19 -13 27 0 5 8 9 17 9
21 0 4 11 3 24 -2 13 -5 26 -6 29 -3 3 2 14 0 24 -6 17 -9 17 -10 -2 -9 -11 1
-31 -2 -44 -6 -18 -6 -22 -5 -16 5 6 11 5 12 -6 1 -11 -10 -9 -15 11 -30 57
-41 114 -70 128 -64 9 3 13 1 9 -5 -4 -7 31 -33 87 -64 59 -33 97 -61 100 -74
3 -11 7 -85 8 -165 l2 -145 6 125 c3 69 12 136 18 150 10 22 11 18 8 -33 -1
-31 -6 -60 -9 -64 -12 -12 -7 -81 6 -86 9 -3 9 -7 0 -19 -8 -9 -13 -49 -14
-99 -1 -53 -5 -77 -10 -64 -7 19 -8 19 -8 -1 -1 -12 -8 -27 -16 -34 -8 -7 -13
-16 -10 -20 3 -5 -2 -16 -11 -24 -8 -9 -12 -16 -7 -16 10 -1 -39 -29 -51 -30
-5 0 0 10 12 23 29 31 28 42 -2 20 -13 -10 -22 -22 -19 -26 3 -5 -1 -7 -9 -5
-7 2 -15 -1 -16 -7 -1 -5 4 -10 11 -11 42 -4 43 -4 27 -13 -8 -6 -18 -7 -23
-4 -4 3 -16 -2 -25 -9 -28 -24 -46 -33 -37 -18 6 10 4 12 -11 6 -14 -5 -16 -4
-8 4 10 10 31 17 58 19 6 1 5 6 -1 12 -15 15 -194 -87 -201 -113 -2 -10 -12
-18 -21 -18 -18 0 -20 -20 -6 -52 9 -23 43 -33 61 -17 11 9 18 8 34 -6 10 -9
25 -15 32 -13 7 3 -9 16 -37 30 l-49 26 60 30 c36 18 61 37 61 46 0 9 -2 16
-4 16 -10 0 -50 -25 -70 -44 -22 -21 -36 -21 -39 1 -1 7 15 18 37 24 21 7 36
16 33 20 -2 4 5 13 17 19 17 10 20 9 14 -1 -6 -9 -3 -11 9 -6 10 4 15 3 11 -3
-3 -6 -1 -10 5 -10 6 0 8 -5 5 -11 -4 -6 11 -1 34 10 23 12 41 24 41 26 0 3
-13 -1 -30 -10 -16 -8 -33 -15 -37 -15 -4 1 9 10 30 21 21 11 43 17 49 13 7
-5 8 -3 3 6 -6 10 -4 12 9 7 9 -4 15 -3 12 2 -3 4 20 20 52 34 31 15 53 27 48
27 -5 0 -3 7 4 15 6 8 9 19 5 25 -9 15 -25 2 -19 -15 3 -7 -3 -18 -14 -24 -18
-10 -18 -8 -8 30 6 24 15 38 22 35 14 -5 27 38 19 63 -3 10 -1 29 4 42 7 18 9
4 7 -53 -1 -43 2 -78 6 -78 4 0 8 4 8 10 0 5 16 0 35 -11 19 -12 32 -25 29
-30 -3 -5 0 -10 5 -10 26 -3 30 -4 37 -11 4 -5 1 -8 -6 -8 -9 0 -8 -4 5 -13
17 -13 17 -14 -1 -12 -11 0 -24 4 -30 8 -18 11 -64 27 -64 22 0 -11 91 -56
101 -49 7 4 9 3 6 -3 -5 -8 140 -101 186 -119 27 -10 21 -18 -35 -46 l-53 -25
45 0 c25 0 37 3 27 6 -15 5 -13 9 13 24 39 24 38 45 -4 62 -19 8 -47 26 -63
41 -15 14 -40 32 -55 40 -39 20 -35 27 5 10 71 -30 106 -52 103 -63 -3 -6 3
-13 12 -16 9 -3 26 -8 37 -12 13 -5 6 6 -18 29 -41 39 -150 99 -161 89 -3 -4
-6 -1 -6 5 0 5 5 12 11 14 6 2 -28 26 -75 53 l-85 50 -2 155 c-2 85 -2 164 -2
175 1 11 -2 35 -7 53 -9 34 0 42 20 17 12 -14 277 -179 350 -217 19 -10 25
-16 13 -13 -20 5 -21 2 -21 -40 0 -25 3 -43 7 -40 5 2 13 -7 20 -21 13 -30 14
-37 2 -30 -14 9 -18 -22 -19 -168 -1 -112 1 -136 12 -127 7 6 15 9 17 7 2 -3
2 18 1 45 -2 27 -8 46 -13 43 -5 -3 -9 19 -8 48 1 48 2 50 9 20 4 -18 10 -35
12 -37 2 -2 4 72 4 166 -1 133 -3 168 -13 165 -7 -3 -13 0 -14 7 -4 43 -3 53
3 58 5 3 -64 45 -152 95 -142 79 -179 104 -152 104 5 0 17 7 28 16 10 8 13 13
7 9 -7 -3 -18 -3 -24 1 -14 8 58 35 75 28 6 -2 21 4 33 15 32 31 129 82 138
74 4 -5 5 -3 1 4 -7 12 23 27 67 32 7 1 5 6 -5 12 -12 7 -24 6 -38 -1 -11 -6
-20 -7 -21 -3 0 4 -2 16 -4 26 -2 11 7 23 25 32 22 11 26 19 23 40 -4 18 -1
25 11 25 12 0 16 9 15 38 l-2 37 -7 -35 c-6 -27 -8 -15 -9 48 0 45 3 82 7 82
5 0 5 21 1 48 -11 69 -11 134 1 127 6 -3 10 -1 10 4 0 6 -6 11 -14 11 -16 0
-28 -79 -26 -163 5 -159 0 -227 -17 -243 -10 -8 -76 -50 -148 -92 -71 -43
-146 -92 -165 -111 l-35 -33 32 16 c42 21 79 22 43 1 -14 -8 -20 -15 -15 -15
6 0 3 -6 -5 -13 -8 -7 -22 -21 -30 -32 -14 -19 -14 -20 6 -2 20 17 21 17 19
-10 -1 -31 29 -67 65 -77 23 -6 23 -6 5 5 -26 16 -35 31 -28 43 4 5 -1 7 -11
3 -10 -4 -15 -3 -11 3 3 6 1 10 -6 10 -7 0 -9 3 -6 6 3 4 37 -14 74 -40 37
-25 74 -46 81 -46 7 0 10 -5 7 -11 -4 -6 -1 -9 6 -8 23 5 60 -12 53 -23 -4 -7
-2 -8 5 -4 11 7 65 -28 67 -45 1 -5 2 -10 3 -11 2 -2 4 -13 7 -26 3 -19 1 -21
-15 -13 -12 7 -17 18 -14 33 4 19 -2 27 -31 41 -20 9 -36 22 -36 27 0 6 -4 8
-10 5 -5 -3 -29 5 -53 19 -24 15 -48 26 -53 26 -5 0 6 -9 24 -20 17 -11 32
-25 32 -30 0 -6 5 -8 12 -4 7 5 8 3 3 -6 -6 -10 -11 -9 -22 5 -7 11 -13 15
-13 9 0 -5 -3 -5 -8 1 -4 6 -28 20 -55 32 -26 13 -68 42 -94 65 -26 24 -44 38
-40 31 12 -19 -14 -27 -31 -9 -15 14 -15 17 3 31 20 16 20 16 -1 6 -27 -13
-51 1 -30 18 8 7 21 9 27 5 7 -4 9 -3 5 4 -6 11 -63 27 -82 24 -6 -1 -11 5
-11 13 0 18 9 19 24 4 6 -6 17 -9 24 -7 12 4 -89 67 -276 173 -49 27 -50 28
-30 4 16 -20 16 -21 1 -7 -14 12 -20 36 -24 100 -3 45 -5 97 -4 113 1 17 5 74
8 128 6 93 5 97 -14 97 -18 0 -20 -4 -12 -30 12 -42 16 -146 5 -142 -5 1 -8
17 -8 35 0 17 -4 37 -9 43 -4 6 -6 18 -3 25 3 8 1 28 -4 44 -6 21 -10 -24 -13
-145z m789 -295 c0 -9 -5 -14 -11 -11 -6 2 -39 -12 -74 -31 -71 -39 -98 -39
-30 0 58 33 102 56 109 57 3 0 6 -7 6 -15z m-13 -42 c-33 -25 -176 -95 -182
-89 -3 3 0 6 6 6 6 0 24 11 39 25 40 37 125 83 142 77 11 -4 10 -8 -5 -19z
m-639 7 c11 9 18 10 28 1 8 -6 16 -8 20 -5 7 8 85 -38 120 -72 21 -20 26 -29
16 -34 -8 -6 2 -12 29 -20 45 -12 54 -20 23 -20 -10 0 -42 16 -71 35 -54 37
-65 42 -55 25 3 -6 -1 -7 -10 -3 -12 4 -13 8 -5 13 8 5 5 12 -11 24 -26 18
-18 22 13 5 11 -6 22 -8 25 -6 3 3 -9 13 -26 21 -19 10 -32 12 -36 6 -4 -7
-13 -6 -26 1 -12 6 -23 8 -26 6 -3 -3 9 -13 26 -22 17 -8 31 -18 31 -21 0 -10
-80 40 -98 60 -16 20 -16 20 1 7 14 -11 20 -11 32 -1z m500 -60 c-6 -9 -97
-42 -102 -36 -2 2 17 11 42 20 25 10 43 22 40 27 -4 5 1 6 9 3 9 -3 14 -10 11
-14z m-546 -841 c-11 -7 -12 -12 -1 -29 15 -24 5 -26 -25 -5 -20 14 -22 52 -3
40 5 -3 11 -1 15 5 4 6 11 7 17 4 6 -4 5 -10 -3 -15z"/>
<path d="M890 1466 c0 -3 39 -28 87 -57 47 -29 108 -67 134 -84 26 -17 65 -40
87 -50 38 -19 39 -20 35 -67 -1 -26 -8 -59 -13 -73 -6 -14 -10 -72 -10 -129 0
-83 4 -110 20 -142 l21 -39 -2 60 c-1 33 -1 78 1 100 3 32 5 25 10 -30 5 -50
7 -16 8 116 1 122 -2 189 -9 196 -8 8 -7 13 2 18 7 5 10 4 5 -3 -16 -27 16
-15 109 39 55 31 100 62 100 67 0 6 4 14 9 19 5 5 6 3 2 -4 -4 -7 -4 -13 0
-13 15 0 134 75 125 78 -6 2 -23 -5 -38 -16 -16 -10 -39 -25 -53 -32 -22 -12
-24 -11 -13 2 7 8 9 19 5 23 -4 5 -2 6 3 2 6 -3 19 1 30 9 18 13 17 14 -17 12
-20 -2 -34 -7 -31 -11 3 -5 -1 -8 -8 -6 -28 3 -40 -1 -33 -13 4 -7 3 -8 -4 -4
-7 4 -57 -18 -113 -49 -55 -31 -106 -54 -114 -51 -9 3 -12 0 -9 -8 7 -17 47
-9 73 15 22 21 36 25 25 8 -4 -8 1 -9 17 -4 18 5 20 4 9 -4 -8 -6 -15 -16 -15
-23 0 -8 -13 -13 -32 -13 -17 0 -41 -9 -52 -19 -12 -11 -24 -16 -28 -13 -3 4
-1 7 6 7 16 0 9 25 -7 26 -7 1 -17 2 -23 3 -5 0 -8 5 -5 10 3 5 -2 12 -12 16
-18 7 -28 4 -25 -7 2 -4 -3 -5 -10 -2 -8 3 -14 11 -14 18 0 8 7 12 15 8 10 -3
13 -1 8 6 -10 16 6 15 23 0 9 -9 12 -9 7 -1 -8 14 -152 98 -186 108 -20 6 -23
5 -12 -6 6 -7 12 -19 12 -26 0 -15 -23 -8 -62 19 -26 18 -38 22 -38 14z m204
-84 c-16 -4 -66 22 -84 43 -8 10 7 5 42 -12 30 -15 49 -29 42 -31z m406 54 c0
-2 -16 -14 -35 -26 -20 -12 -41 -28 -48 -34 -7 -7 -22 -18 -35 -25 -19 -10
-22 -9 -22 7 0 18 40 43 77 48 6 1 22 9 35 18 24 17 28 19 28 12z m-245 -344
c3 -7 -2 -28 -10 -45 -8 -18 -16 -57 -18 -87 -2 -32 -4 -13 -5 46 -2 82 1 101
13 101 8 0 17 -7 20 -15z"/>
<path d="M310 779 c-31 -16 -33 -25 -6 -20 5 1 4 -5 -4 -13 -13 -17 -35 -22
-25 -7 3 5 0 13 -6 17 -8 5 -9 3 -4 -6 6 -10 4 -12 -9 -7 -10 4 -24 -1 -35
-12 -11 -11 -23 -16 -27 -13 -4 4 -3 1 1 -7 6 -11 4 -13 -9 -8 -10 4 -15 3
-11 -3 3 -6 -2 -10 -11 -10 -16 0 -144 -66 -144 -75 0 -2 13 2 30 8 38 15 65
-4 31 -22 -12 -7 -21 -8 -21 -2 0 5 6 12 13 14 9 4 9 6 -1 6 -21 1 -72 -29
-71 -42 0 -9 2 -9 6 1 2 6 9 12 14 12 6 0 7 -5 3 -11 -4 -8 0 -8 15 0 12 7 21
8 21 2 0 -5 -9 -13 -20 -16 -11 -3 -21 -11 -21 -16 -3 -19 -4 -24 -11 -34 -3
-6 -6 -100 -5 -210 0 -146 3 -188 9 -155 5 25 7 113 5 197 -2 84 -1 156 2 162
3 5 80 53 171 106 91 53 171 102 178 108 11 9 13 -25 10 -185 -2 -142 0 -199
9 -207 7 -6 10 -20 8 -31 -2 -12 0 -18 6 -14 5 3 16 0 24 -6 8 -7 15 -9 15 -5
0 4 7 1 17 -6 15 -13 15 -12 3 8 -8 12 -20 19 -28 15 -10 -3 -13 -1 -9 5 4 6
2 13 -4 15 -7 2 -10 10 -8 17 4 11 8 11 20 -1 8 -9 25 -18 36 -22 14 -4 20
-12 16 -22 -3 -8 1 -14 8 -14 11 0 11 -3 -1 -10 -11 -7 -11 -10 -2 -10 7 0 10
-5 7 -10 -4 -7 -14 -5 -28 5 -12 8 -28 15 -37 15 -8 0 7 -13 34 -29 27 -16 56
-27 64 -23 9 3 13 1 9 -5 -4 -6 22 -28 61 -51 113 -67 153 -84 183 -80 16 3
31 0 33 -6 2 -6 5 -3 5 8 1 14 -4 17 -22 13 -12 -4 -29 -2 -37 3 -12 8 -10 10
8 10 13 0 20 4 17 10 -12 20 -144 92 -156 84 -8 -4 -9 -3 -5 4 5 8 -2 11 -22
8 -18 -2 -29 2 -29 10 0 10 5 10 21 2 19 -10 20 -10 7 6 -9 11 -21 14 -35 10
-12 -4 -18 -3 -14 1 9 9 -74 91 -100 99 -15 5 -21 20 -26 68 -8 81 -5 127 4
68 5 -27 6 4 4 75 -3 66 -5 129 -5 140 0 10 -5 25 -10 31 -7 9 -4 16 12 25 20
10 21 13 7 23 -8 6 -16 16 -17 21 -6 23 -10 15 -5 -9 3 -16 -1 -33 -10 -41
-19 -19 -27 -8 -16 21 9 22 8 23 -9 15 -10 -6 -22 -7 -26 -3 -5 4 -5 2 -2 -4
4 -7 0 -15 -9 -18 -9 -4 -14 -9 -10 -13 3 -3 15 2 26 12 11 10 20 14 20 9 0
-12 -40 -37 -47 -30 -3 3 -31 -8 -62 -23 -31 -16 -63 -26 -71 -23 -13 4 -13 3
-1 -11 7 -9 18 -14 25 -11 6 3 2 -1 -8 -10 -10 -8 -22 -13 -27 -11 -4 3 -9 2
-11 -2 -4 -10 -109 -75 -114 -71 -6 7 12 25 49 47 20 12 37 24 37 25 0 1 -9 2
-19 2 -11 0 -17 -4 -15 -8 3 -4 1 -8 -5 -8 -5 0 -12 4 -16 9 -7 13 32 34 47
25 16 -10 58 -14 58 -5 0 15 -13 21 -24 11 -7 -5 -17 -5 -26 1 -13 9 -13 10 0
6 8 -2 36 11 62 30 46 32 82 47 44 18 -32 -24 -9 -17 35 11 23 14 38 28 35 31
-3 3 2 12 12 19 27 20 10 22 -28 3z m102 -219 c-2 -52 -7 -100 -11 -108 -4 -7
-6 8 -5 35 1 26 3 89 4 138 2 59 5 80 9 60 4 -16 5 -73 3 -125z m236 -396 c12
-8 32 -17 43 -19 12 -3 24 -7 27 -10 8 -7 12 -35 5 -35 -10 0 -49 24 -76 47
-16 13 -34 20 -39 17 -7 -4 -8 -2 -4 4 9 16 17 15 44 -4z"/>
<path d="M350 315 c-7 -8 -9 -15 -4 -15 5 0 2 -4 -6 -10 -9 -6 -20 -5 -30 3
-8 6 -12 8 -8 3 8 -10 -35 -47 -76 -64 -64 -28 -166 -94 -166 -107 0 -7 -9
-16 -19 -20 -17 -5 -23 -27 -10 -40 11 -10 77 20 224 103 83 46 151 85 152 86
1 1 -7 8 -19 15 -11 7 -18 8 -15 4 7 -11 -104 -76 -162 -97 -30 -10 -43 -11
-48 -2 -3 6 -3 8 1 4 5 -4 25 5 45 20 21 15 62 38 92 52 55 25 78 45 79 68 0
17 -15 15 -30 -3z m-150 -159 c0 -10 -103 -67 -113 -63 -7 2 15 18 48 35 66
34 65 34 65 28z"/>
<path d="M1265 290 c-3 -5 0 -10 7 -11 7 0 4 -4 -7 -9 -13 -6 -15 -9 -5 -9 8
-1 25 -4 38 -7 16 -5 22 -2 22 10 0 9 -7 16 -15 16 -8 0 -15 5 -15 10 0 6 -4
10 -9 10 -6 0 -13 -4 -16 -10z"/>
<path d="M710 29 c-47 -24 -51 -28 -28 -29 28 0 105 45 91 53 -5 3 -33 -8 -63
-24z"/>
<path d="M68 33 c17 -9 32 -20 32 -25 0 -4 12 -8 28 -8 25 1 24 3 -18 25 -25
13 -52 24 -60 24 -8 0 0 -8 18 -16z"/>
<path d="M8 18 c6 -6 28 -13 48 -14 39 -4 42 3 5 11 -11 3 -31 7 -43 10 -16 3
-19 2 -10 -7z"/>
</g>
</svg>
