<?xml version="1.0" standalone="no"?>
<!DOCTYPE svg PUBLIC "-//W3C//DTD SVG 20010904//EN"
 "http://www.w3.org/TR/2001/REC-SVG-20010904/DTD/svg10.dtd">
<svg version="1.0" xmlns="http://www.w3.org/2000/svg"
 width="230.000000pt" height="230.000000pt" viewBox="0 0 230.000000 230.000000"
 preserveAspectRatio="xMidYMid meet">
<metadata>
Created by potrace 1.16, written by Peter Selinger 2001-2019
</metadata>
<g transform="translate(0.000000,230.000000) scale(0.100000,-0.100000)"
fill="#000000" stroke="none">
<path d="M830 2070 l0 -100 75 0 76 0 -3 -412 -3 -413 -57 -170 c-31 -93 -64
-197 -73 -230 l-17 -59 -83 204 c-105 258 -245 618 -245 631 0 5 68 9 163 9
90 0 166 2 168 4 2 2 3 45 1 95 l-3 91 -310 0 c-170 0 -309 -2 -309 -3 0 -12
52 -152 130 -347 153 -386 296 -752 325 -830 15 -41 56 -142 90 -225 34 -82
66 -160 69 -173 9 -28 22 -21 29 17 3 16 44 134 90 263 47 128 95 267 108 308
12 41 45 143 73 225 l50 150 3 433 4 432 144 0 145 0 0 100 0 100 -320 0 -320
0 0 -100z"/>
<path d="M1420 1628 l0 -98 210 0 c116 0 210 -3 210 -7 1 -25 -331 -863 -342
-863 -4 0 -8 8 -8 18 -1 29 -127 367 -136 366 -5 -1 -27 -53 -48 -115 -60
-173 -60 -173 66 -489 59 -146 110 -277 113 -293 4 -15 10 -27 14 -27 3 0 21
40 40 88 18 48 57 145 86 217 51 124 150 373 360 905 96 241 147 381 142 386
-1 1 -161 4 -354 6 l-353 4 0 -98z"/>
</g>
</svg>
